HIERARCHY
ROOT Hips
{
  OFFSET 0 47.6942 0
  CHANNELS 6 Xposition Yposition Zposition Zrotation Xrotation Yrotation
  JOINT RightHipJoint
  {
    OFFSET 0 0 0
    CHANNELS 3 Zrotation Xrotation Yrotation
    JOINT RightUpLeg
    {
      OFFSET -6.08134 -3.88629 0.128968
      CHANNELS 3 Zrotation Xrotation Yrotation
      JOINT RightLeg
      {
        OFFSET -0.557283 -16.0178 0.0584079
        CHANNELS 3 Zrotation Xrotation Yrotation
        JOINT RightFoot
        {
          OFFSET -0.113211 -17.963 0.310197
          CHANNELS 3 Zrotation Xrotation Yrotation
          JOINT RightToeBase
          {
            OFFSET -0.663182 -7.38523 8.38825
            CHANNELS 3 Zrotation Xrotation Yrotation
            End Site
            {
              OFFSET -0.406279 0.043209 5.537
            }
          }
        }
      }
    }
  }
  JOINT LeftHipJoint
  {
    OFFSET 0 0 0
    CHANNELS 3 Zrotation Xrotation Yrotation
    JOINT LeftUpLeg
    {
      OFFSET 6.08134 -3.88629 0.128968
      CHANNELS 3 Zrotation Xrotation Yrotation
      JOINT LeftLeg
      {
        OFFSET 0.557283 -16.0178 0.0584079
        CHANNELS 3 Zrotation Xrotation Yrotation
        JOINT LeftFoot
        {
          OFFSET 0.113211 -17.963 0.310197
          CHANNELS 3 Zrotation Xrotation Yrotation
          JOINT LeftToeBase
          {
            OFFSET 0.663182 -7.38523 8.38825
            CHANNELS 3 Zrotation Xrotation Yrotation
            End Site
            {
              OFFSET 0.406279 0.043209 5.537
            }
          }
        }
      }
    }
  }
  JOINT LowerBack
  {
    OFFSET 0 0 0
    CHANNELS 3 Zrotation Xrotation Yrotation
    JOINT Spine
    {
      OFFSET 0 5.04431 -0.164042
      CHANNELS 3 Zrotation Xrotation Yrotation
      JOINT Spine1
      {
        OFFSET 0 6.7752 -0.262859
        CHANNELS 3 Zrotation Xrotation Yrotation
        JOINT Spine2
        {
          OFFSET 0 7.06988 -0.278313
          CHANNELS 3 Zrotation Xrotation Yrotation
          JOINT RightShoulder
          {
            OFFSET -3.78479 6.42979 -0.288036
            CHANNELS 3 Zrotation Xrotation Yrotation
            JOINT RightArm
            {
              OFFSET -6.31165 -2.71771 0.0219277
              CHANNELS 3 Zrotation Xrotation Yrotation
              JOINT RightForeArm
              {
                OFFSET -11.5936 -0.943246 -0.40631
                CHANNELS 3 Zrotation Xrotation Yrotation
                JOINT RightHand
                {
                  OFFSET -17.7496 -0.164851 0.501108
                  CHANNELS 3 Zrotation Xrotation Yrotation
                  End Site
                  {
                    OFFSET -8.18929 -0.905915 0.215009
                  }
                }
              }
            }
          }
          JOINT LeftShoulder
          {
            OFFSET 3.78479 6.42979 -0.288036
            CHANNELS 3 Zrotation Xrotation Yrotation
            JOINT LeftArm
            {
              OFFSET 6.31165 -2.71771 0.0219277
              CHANNELS 3 Zrotation Xrotation Yrotation
              JOINT LeftForeArm
              {
                OFFSET 11.5936 -0.943246 -0.40631
                CHANNELS 3 Zrotation Xrotation Yrotation
                JOINT LeftHand
                {
                  OFFSET 17.7496 -0.164851 0.501108
                  CHANNELS 3 Zrotation Xrotation Yrotation
                  End Site
                  {
                    OFFSET 8.18929 -0.905915 0.215009
                  }
                }
              }
            }
          }
          JOINT Neck
          {
            OFFSET 0 10.3326 -0.261975
            CHANNELS 3 Zrotation Xrotation Yrotation
            JOINT Head
            {
              OFFSET 0 12.4977 0.713112
              CHANNELS 3 Zrotation Xrotation Yrotation
              End Site
              {
                OFFSET 0 26.9967 0
              }
            }
          }
        }
      }
    }
  }
}
MOTION
Frames:	11
Frame Time:	0.0333333
-2.2578e-07 47.6737 0.70238 0 0 -0 0 0 -0 1.12994 0.400321 -0.0120637 0.000437726 1.53736 0.000678427 -1.13096 -1.93753 -0.0268507 6.67011e-09 -7.80082e-17 -5.95099e-08 0 0 -0 -1.1301 0.3577 0.010941 -0.000312394 1.60093 0.00045919 1.13099 -1.95847 0.0272523 -6.67011e-09 -3.70789e-15 1.91088e-06 0 0 -0 1.70755e-06 0 -0 -1.70755e-06 0 -0 0 0 -0 0 0 -0 -5.59419e-05 6.06983e-06 -7.27955e-05 5.12995e-05 -6.12313e-06 6.9914e-05 4.64239e-06 5.3361e-08 2.66804e-06 5.33609e-08 0 -0 5.2934e-05 9.29816e-06 6.94475e-05 -4.75445e-05 -9.2981e-06 -6.70996e-05 -5.44281e-06 1.11518e-13 -2.13443e-06 -1.70755e-06 0 -0 -2.03556e-13 0 -0 
-97.1202 47.0661 -185.65 1.91144 -5.79728 -1.12299 -4.47266e-16 0 3.97569e-16 -5.70203 10.9449 -7.82857 2.78014 9.33437 -10.4345 3.58039 -11.3107 -6.79368 -1.79451e-06 -4.50442e-07 -5.01158e-06 -4.47266e-16 0 3.97569e-16 0.268813 8.10207 2.25417 -1.11987 6.79096 8.56766 -2.52802 -4.49057 5.89038 9.3315e-07 2.90171e-07 1.72526e-06 -4.47266e-16 0 3.97569e-16 -0.416833 1.94634 0.134564 -0.841768 3.89023 0.290195 -0.841935 3.89024 0.287534 0.035381 -0.36647 -8.18443 13.6996 -5.41246 6.6042 -14.5586 -4.45284 16.6973 -2.94248 14.5016 -6.93929 0.774139 -0.10229 4.18301 -15.0239 -9.88361 -2.85942 14.446 -4.72027 -17.7655 0.920589 31.0558 8.70679 -6.1127 7.87901 -1.93022 10.8089 -17.2402 -4.67219 
-97.1214 47.0663 -185.651 1.91144 -5.80099 -1.12299 7.45443e-17 0 -0 -5.70167 10.9431 -7.80454 2.77979 9.34468 -10.4463 3.58341 -11.3146 -6.79413 -2.47259e-07 1.0343e-06 -1.65615e-06 7.45443e-17 0 -0 0.269863 8.10682 2.24228 -1.12149 6.78709 8.578 -2.52594 -4.49078 5.89481 1.12275e-06 -1.44966e-06 4.80819e-08 7.45443e-17 0 -0 -0.416833 1.94633 0.134545 -0.841771 3.89154 0.290216 -0.841944 3.89156 0.287554 0.041725 -0.36648 -8.17839 13.7044 -5.43959 6.58931 -14.5566 -4.45771 16.7155 -2.96388 14.5457 -6.93165 0.762436 -0.103421 4.19807 -15.0051 -9.91642 -2.88699 14.431 -4.71113 -17.756 0.931903 31.0434 8.69219 -6.10699 7.88655 -1.92377 10.7966 -17.2384 -4.66344 
-97.1315 47.067 -185.659 1.90634 -5.83343 -1.11574 3.72721e-16 0 1.98785e-16 -5.68613 10.9456 -7.82207 2.77387 9.38868 -10.4399 3.60841 -11.3374 -6.787 -1.44086e-06 -1.00362e-06 3.28548e-06 3.72721e-16 0 1.98785e-16 0.292328 8.11461 2.20757 -1.13148 6.81787 8.59493 -2.52015 -4.49574 5.90491 -6.22573e-07 -1.19546e-06 -1.70941e-06 3.72721e-16 0 1.98785e-16 -0.418534 1.95389 0.134804 -0.841417 3.90671 0.290385 -0.841597 3.9067 0.287721 0.0629733 -0.365954 -8.16139 13.73 -5.4448 6.55723 -14.5917 -4.47837 16.739 -3.03776 14.4392 -6.89119 0.770976 -0.107015 4.24714 -15.0256 -10.0207 -2.94944 14.4415 -4.72532 -17.7887 1.02136 30.9933 8.68158 -6.12344 7.93528 -1.86761 10.8368 -17.272 -4.61301 
-97.1407 47.0677 -185.665 1.89983 -5.8567 -1.10395 -2.48481e-17 0 -1.98785e-16 -5.65049 10.9337 -7.83802 2.75483 9.4349 -10.4481 3.58248 -11.3373 -6.7948 -1.59507e-06 -8.65863e-07 8.19193e-06 -2.48481e-17 0 -1.98785e-16 0.33528 8.11721 2.27781 -1.14219 6.84921 8.53448 -2.57525 -4.49756 5.86257 2.79657e-07 3.81436e-07 1.70083e-06 -2.48481e-17 0 -1.98785e-16 -0.420371 1.95647 0.135006 -0.841812 3.91184 0.290526 -0.841052 3.91185 0.298972 0.0608912 -0.369725 -8.20909 13.7736 -5.44826 6.56138 -14.5904 -4.47575 16.7332 -3.04188 14.5098 -6.89234 0.749853 -0.107811 4.26084 -14.9445 -10.0578 -3.01082 14.3948 -4.72124 -17.8397 1.08106 31.1297 8.62807 -6.08994 8.01062 -1.86847 10.8245 -17.2954 -4.60485 
-97.1491 47.0681 -185.673 1.89536 -5.90435 -1.09254 1.49089e-16 7.95139e-16 -0 -5.63662 10.9725 -7.85963 2.75 9.45704 -10.4506 3.60808 -11.3557 -6.79444 -2.40587e-06 -3.11098e-07 1.67907e-06 1.49089e-16 7.95139e-16 -0 0.366073 8.13872 2.2591 -1.15649 6.87016 8.53554 -2.59361 -4.4712 5.86227 3.81197e-07 -5.04818e-07 3.40074e-06 1.49089e-16 7.95139e-16 -0 -0.422352 1.96479 0.135253 -0.846225 3.92851 0.291445 -0.845669 3.92852 0.297698 0.0756314 -0.371906 -8.22767 13.7806 -5.54977 6.58025 -14.5167 -4.44292 16.7215 -3.03995 14.5625 -6.86787 0.742515 -0.111049 4.30618 -14.9358 -10.0233 -3.05096 14.4364 -4.75615 -17.8971 1.25344 31.2142 8.48803 -6.10114 8.06983 -1.86551 10.8384 -17.3132 -4.60801 
-97.1587 47.069 -185.683 1.89128 -5.94912 -1.0874 4.96962e-17 7.95139e-16 1.98785e-16 -5.61593 10.9891 -7.84309 2.75127 9.48356 -10.4619 3.58852 -11.3606 -6.80202 -1.39878e-06 -7.03914e-07 -1.7215e-06 4.96962e-17 7.95139e-16 1.98785e-16 0.387516 8.16236 2.24016 -1.16018 6.88325 8.53454 -2.5978 -4.45466 5.86164 -6.39593e-07 -8.02669e-07 5.05653e-06 4.96962e-17 7.95139e-16 1.98785e-16 -0.424415 1.97344 0.135493 -0.851903 3.94574 0.292581 -0.851901 3.94574 0.292571 0.0945493 -0.370964 -8.20452 13.8204 -5.58966 6.56841 -14.5451 -4.45009 16.7097 -3.0136 14.4476 -6.90316 0.737998 -0.116463 4.38545 -14.9048 -10.0413 -3.12929 14.4265 -4.7576 -17.9166 1.30909 31.2841 8.43927 -6.10295 8.08432 -1.8548 10.8577 -17.2801 -4.60278 
-97.1678 47.0697 -185.694 1.88677 -6.00211 -1.06419 1.73937e-16 0 -3.97569e-16 -5.60138 11.0361 -7.85162 2.75374 9.49007 -10.467 3.59887 -11.3791 -6.80408 -3.46486e-06 -1.68454e-06 -3.32347e-06 1.73937e-16 0 -3.97569e-16 0.407788 8.18052 2.27097 -1.16155 6.91356 8.50814 -2.58437 -4.44897 5.84301 2.64041e-06 -3.69851e-07 9.95776e-08 1.73937e-16 0 -3.97569e-16 -0.426482 1.98488 0.135764 -0.857293 3.96862 0.302929 -0.857299 3.96863 0.302915 0.11348 -0.377974 -8.28361 13.8737 -5.71084 6.58869 -14.5477 -4.46081 16.7424 -3.02463 14.4983 -6.8576 0.740018 -0.116394 4.38113 -14.9153 -10.2039 -3.17593 14.4222 -4.76679 -17.9531 1.1587 31.2735 8.48799 -6.10833 8.08552 -1.88077 10.8711 -17.2216 -4.63784 
-97.1789 47.0704 -185.707 1.88242 -6.039 -1.04739 -3.97569e-16 7.95139e-16 1.98785e-16 -5.57436 11.0519 -7.85903 2.75433 9.5076 -10.4789 3.57674 -11.3782 -6.81271 -1.81777e-06 -1.46654e-09 1.62641e-06 -3.97569e-16 7.95139e-16 1.98785e-16 0.431146 8.19475 2.22981 -1.15272 6.92794 8.51471 -2.61964 -4.4444 5.84871 -3.38797e-07 -3.7322e-07 -1.70309e-06 -3.97569e-16 7.95139e-16 1.98785e-16 -0.429241 1.99184 0.136079 -0.862579 3.9825 0.307593 -0.862584 3.98251 0.307593 0.138562 -0.38282 -8.32792 13.8747 -5.64747 6.59196 -14.5552 -4.46535 16.7485 -3.04263 14.5422 -6.86636 0.740606 -0.116168 4.38181 -14.9053 -10.2223 -3.18987 14.4232 -4.76955 -17.9615 1.15092 31.2857 8.49738 -6.08705 8.13597 -1.87549 10.8454 -17.213 -4.62758 
-97.1902 47.0712 -185.723 1.87922 -6.07872 -1.01886 -1.40392e-15 0 1.98785e-16 -5.54199 11.0705 -7.8685 2.74553 9.53 -10.4965 3.56477 -11.3874 -6.82563 -2.55066e-06 -1.94892e-07 -3.36407e-06 -1.40392e-15 0 1.98785e-16 0.466419 8.2018 2.16528 -1.17349 6.94527 8.53501 -2.62448 -4.43522 5.86054 5.50054e-07 -2.26092e-06 5.10714e-06 -1.40392e-15 0 1.98785e-16 -0.433156 2.00201 0.136568 -0.869161 4.00288 0.311099 -0.869249 4.00288 0.311126 0.14587 -0.385659 -8.35954 13.9235 -5.68419 6.62336 -14.5571 -4.46189 16.736 -2.99433 14.5007 -6.88016 0.740667 -0.116648 4.38652 -14.8972 -10.1438 -3.16265 14.4596 -4.79234 -17.9867 1.24506 31.1978 8.4636 -6.0645 8.19563 -1.85444 10.8449 -17.2151 -4.60199 
-97.1999 47.0724 -185.74 1.87339 -6.11287 -0.990966 6.33626e-16 7.95139e-16 -0 -5.50671 11.0652 -7.90158 2.73515 9.55863 -10.4902 3.52082 -11.3732 -6.82447 -1.564e-06 -1.03796e-06 1.62415e-06 6.33626e-16 7.95139e-16 -0 0.488208 8.20247 2.12253 -1.175 6.94844 8.54963 -2.61537 -4.40617 5.87113 1.27342e-06 -1.01054e-06 -5.0249e-06 6.33626e-16 7.95139e-16 -0 -0.437208 2.01254 0.137108 -0.878036 4.02394 0.31467 -0.878119 4.02394 0.314702 0.16423 -0.389098 -8.39294 13.969 -5.77498 6.61993 -14.5387 -4.45631 16.7425 -2.98733 14.5801 -6.84998 0.737957 -0.11776 4.40323 -14.9071 -10.2019 -3.20746 14.4595 -4.79437 -17.9947 1.28154 31.2105 8.45861 -6.03568 8.2398 -1.85161 10.8427 -17.1693 -4.59672 
